<svg xmlns="http://www.w3.org/2000/svg" xmlns:xlink="http://www.w3.org/1999/xlink" width="512" zoomAndPan="magnify" viewBox="0 0 384 143.999998" height="192" preserveAspectRatio="xMidYMid meet" version="1.0"><defs><g/><clipPath id="c79ba84c68"><path d="M 28.800781 26.367188 L 116.550781 26.367188 L 116.550781 110.367188 L 28.800781 110.367188 Z M 28.800781 26.367188 " clip-rule="nonzero"/></clipPath></defs><g fill="#ffffff" fill-opacity="1"><g transform="translate(126.191948, 86.584308)"><g><path d="M 2.171875 -0.589844 C 2.171875 -0.25 2.421875 0 2.761719 0 L 18.351562 0 C 18.722656 0 18.941406 -0.21875 18.941406 -0.589844 L 18.941406 -1.273438 C 18.941406 -1.644531 19.15625 -1.863281 19.53125 -1.863281 L 20.214844 -1.863281 C 20.585938 -1.863281 20.804688 -2.082031 20.804688 -2.453125 L 20.804688 -3.136719 C 20.804688 -3.507812 21.019531 -3.726562 21.394531 -3.726562 L 22.074219 -3.726562 C 22.449219 -3.726562 22.667969 -3.941406 22.667969 -4.316406 L 22.667969 -24.746094 C 22.667969 -25.117188 22.449219 -25.335938 22.074219 -25.335938 L 21.394531 -25.335938 C 21.019531 -25.335938 20.804688 -25.554688 20.804688 -25.925781 L 20.804688 -26.609375 C 20.804688 -26.980469 20.585938 -27.199219 20.214844 -27.199219 L 19.53125 -27.199219 C 19.15625 -27.199219 18.941406 -27.417969 18.941406 -27.789062 L 18.941406 -28.472656 C 18.941406 -28.84375 18.722656 -29.0625 18.351562 -29.0625 L 2.761719 -29.0625 C 2.421875 -29.0625 2.171875 -28.8125 2.171875 -28.472656 Z M 10.558594 -26.609375 C 10.558594 -26.980469 10.773438 -27.199219 11.148438 -27.199219 L 11.828125 -27.199219 C 12.203125 -27.199219 12.417969 -26.980469 12.417969 -26.609375 L 12.417969 -25.925781 C 12.417969 -25.554688 12.636719 -25.335938 13.007812 -25.335938 L 13.691406 -25.335938 C 14.066406 -25.335938 14.28125 -25.117188 14.28125 -24.746094 L 14.28125 -4.316406 C 14.28125 -3.941406 14.066406 -3.726562 13.691406 -3.726562 L 13.007812 -3.726562 C 12.636719 -3.726562 12.417969 -3.507812 12.417969 -3.136719 L 12.417969 -2.453125 C 12.417969 -2.082031 12.203125 -1.863281 11.828125 -1.863281 L 11.148438 -1.863281 C 10.773438 -1.863281 10.558594 -2.082031 10.558594 -2.453125 Z M 10.558594 -26.609375 "/></g></g></g><g fill="#ffffff" fill-opacity="1"><g transform="translate(156.495763, 86.584308)"><g><path d="M 2.171875 -0.589844 C 2.171875 -0.21875 2.390625 0 2.761719 0 L 20.214844 0 C 20.585938 0 20.804688 -0.21875 20.804688 -0.589844 L 20.804688 -7.792969 C 20.804688 -8.164062 20.585938 -8.382812 20.214844 -8.382812 L 14.871094 -8.382812 C 14.5 -8.382812 14.28125 -8.164062 14.28125 -7.792969 L 14.28125 -7.109375 C 14.28125 -6.738281 14.066406 -6.519531 13.691406 -6.519531 L 13.007812 -6.519531 C 12.636719 -6.519531 12.417969 -6.304688 12.417969 -5.929688 L 12.417969 -2.453125 C 12.417969 -2.082031 12.203125 -1.863281 11.828125 -1.863281 L 11.148438 -1.863281 C 10.773438 -1.863281 10.558594 -2.082031 10.558594 -2.453125 L 10.558594 -12.078125 C 10.558594 -12.449219 10.773438 -12.667969 11.148438 -12.667969 L 17.171875 -12.667969 C 17.542969 -12.667969 17.761719 -12.886719 17.761719 -13.257812 L 17.761719 -15.804688 C 17.761719 -16.175781 17.542969 -16.394531 17.171875 -16.394531 L 11.148438 -16.394531 C 10.773438 -16.394531 10.558594 -16.613281 10.558594 -16.984375 L 10.558594 -26.609375 C 10.558594 -26.980469 10.773438 -27.199219 11.148438 -27.199219 L 11.828125 -27.199219 C 12.203125 -27.199219 12.417969 -26.980469 12.417969 -26.609375 L 12.417969 -23.132812 C 12.417969 -22.757812 12.636719 -22.542969 13.007812 -22.542969 L 13.691406 -22.542969 C 14.066406 -22.542969 14.28125 -22.324219 14.28125 -21.953125 L 14.28125 -21.269531 C 14.28125 -20.894531 14.5 -20.679688 14.871094 -20.679688 L 20.214844 -20.679688 C 20.585938 -20.679688 20.804688 -20.894531 20.804688 -21.269531 L 20.804688 -28.472656 C 20.804688 -28.84375 20.585938 -29.0625 20.214844 -29.0625 L 2.761719 -29.0625 C 2.390625 -29.0625 2.171875 -28.84375 2.171875 -28.472656 Z M 2.171875 -0.589844 "/></g></g></g><g fill="#ffffff" fill-opacity="1"><g transform="translate(184.315824, 86.584308)"><g><path d="M 2.171875 -0.589844 C 2.171875 -0.25 2.421875 0 2.761719 0 L 18.351562 0 C 18.722656 0 18.941406 -0.21875 18.941406 -0.589844 L 18.941406 -1.273438 C 18.941406 -1.644531 19.15625 -1.863281 19.53125 -1.863281 L 20.214844 -1.863281 C 20.585938 -1.863281 20.804688 -2.082031 20.804688 -2.453125 L 20.804688 -3.136719 C 20.804688 -3.507812 21.019531 -3.726562 21.394531 -3.726562 L 22.074219 -3.726562 C 22.449219 -3.726562 22.667969 -3.941406 22.667969 -4.316406 L 22.667969 -24.746094 C 22.667969 -25.117188 22.449219 -25.335938 22.074219 -25.335938 L 21.394531 -25.335938 C 21.019531 -25.335938 20.804688 -25.554688 20.804688 -25.925781 L 20.804688 -26.609375 C 20.804688 -26.980469 20.585938 -27.199219 20.214844 -27.199219 L 19.53125 -27.199219 C 19.15625 -27.199219 18.941406 -27.417969 18.941406 -27.789062 L 18.941406 -28.472656 C 18.941406 -28.84375 18.722656 -29.0625 18.351562 -29.0625 L 2.761719 -29.0625 C 2.421875 -29.0625 2.171875 -28.8125 2.171875 -28.472656 Z M 10.558594 -26.609375 C 10.558594 -26.980469 10.773438 -27.199219 11.148438 -27.199219 L 11.828125 -27.199219 C 12.203125 -27.199219 12.417969 -26.980469 12.417969 -26.609375 L 12.417969 -25.925781 C 12.417969 -25.554688 12.636719 -25.335938 13.007812 -25.335938 L 13.691406 -25.335938 C 14.066406 -25.335938 14.28125 -25.117188 14.28125 -24.746094 L 14.28125 -4.316406 C 14.28125 -3.941406 14.066406 -3.726562 13.691406 -3.726562 L 13.007812 -3.726562 C 12.636719 -3.726562 12.417969 -3.507812 12.417969 -3.136719 L 12.417969 -2.453125 C 12.417969 -2.082031 12.203125 -1.863281 11.828125 -1.863281 L 11.148438 -1.863281 C 10.773438 -1.863281 10.558594 -2.082031 10.558594 -2.453125 Z M 10.558594 -26.609375 "/></g></g></g><g fill="#ffffff" fill-opacity="1"><g transform="translate(214.61964, 86.584308)"><g><path d="M 2.171875 -0.589844 C 2.171875 -0.21875 2.390625 0 2.761719 0 L 20.214844 0 C 20.585938 0 20.804688 -0.21875 20.804688 -0.589844 L 20.804688 -7.792969 C 20.804688 -8.164062 20.585938 -8.382812 20.214844 -8.382812 L 14.871094 -8.382812 C 14.5 -8.382812 14.28125 -8.164062 14.28125 -7.792969 L 14.28125 -7.109375 C 14.28125 -6.738281 14.066406 -6.519531 13.691406 -6.519531 L 13.007812 -6.519531 C 12.636719 -6.519531 12.417969 -6.304688 12.417969 -5.929688 L 12.417969 -2.453125 C 12.417969 -2.082031 12.203125 -1.863281 11.828125 -1.863281 L 11.148438 -1.863281 C 10.773438 -1.863281 10.558594 -2.082031 10.558594 -2.453125 L 10.558594 -12.078125 C 10.558594 -12.449219 10.773438 -12.667969 11.148438 -12.667969 L 17.171875 -12.667969 C 17.542969 -12.667969 17.761719 -12.886719 17.761719 -13.257812 L 17.761719 -15.804688 C 17.761719 -16.175781 17.542969 -16.394531 17.171875 -16.394531 L 11.148438 -16.394531 C 10.773438 -16.394531 10.558594 -16.613281 10.558594 -16.984375 L 10.558594 -26.609375 C 10.558594 -26.980469 10.773438 -27.199219 11.148438 -27.199219 L 11.828125 -27.199219 C 12.203125 -27.199219 12.417969 -26.980469 12.417969 -26.609375 L 12.417969 -23.132812 C 12.417969 -22.757812 12.636719 -22.542969 13.007812 -22.542969 L 13.691406 -22.542969 C 14.066406 -22.542969 14.28125 -22.324219 14.28125 -21.953125 L 14.28125 -21.269531 C 14.28125 -20.894531 14.5 -20.679688 14.871094 -20.679688 L 20.214844 -20.679688 C 20.585938 -20.679688 20.804688 -20.894531 20.804688 -21.269531 L 20.804688 -28.472656 C 20.804688 -28.84375 20.585938 -29.0625 20.214844 -29.0625 L 2.761719 -29.0625 C 2.390625 -29.0625 2.171875 -28.84375 2.171875 -28.472656 Z M 2.171875 -0.589844 "/></g></g></g><g fill="#ffffff" fill-opacity="1"><g transform="translate(242.439701, 86.584308)"><g><path d="M 2.171875 -0.589844 C 2.171875 -0.21875 2.390625 0 2.761719 0 L 9.96875 0 C 10.339844 0 10.558594 -0.21875 10.558594 -0.589844 L 10.558594 -17.292969 C 10.558594 -17.667969 10.773438 -17.882812 11.148438 -17.882812 L 11.859375 -17.882812 C 12.234375 -17.882812 12.449219 -17.667969 12.449219 -17.292969 L 12.449219 -16.613281 C 12.449219 -16.238281 12.667969 -16.019531 13.039062 -16.019531 L 13.722656 -16.019531 C 14.097656 -16.019531 14.3125 -15.804688 14.3125 -15.429688 L 14.3125 -0.589844 C 14.3125 -0.21875 14.53125 0 14.902344 0 L 22.105469 0 C 22.480469 0 22.695312 -0.21875 22.695312 -0.589844 L 22.695312 -28.472656 C 22.695312 -28.84375 22.480469 -29.0625 22.105469 -29.0625 L 14.902344 -29.0625 C 14.53125 -29.0625 14.3125 -28.84375 14.3125 -28.472656 L 14.3125 -20.335938 C 14.3125 -19.996094 14.5625 -19.746094 14.902344 -19.746094 L 15.585938 -19.746094 C 15.929688 -19.746094 16.175781 -19.5 16.175781 -19.15625 L 16.175781 -18.472656 C 16.175781 -18.132812 16.425781 -17.882812 16.765625 -17.882812 L 17.449219 -17.882812 C 17.792969 -17.882812 18.039062 -17.636719 18.039062 -17.292969 L 18.039062 -16.613281 C 18.039062 -16.269531 17.792969 -16.019531 17.449219 -16.019531 L 16.765625 -16.019531 C 16.425781 -16.019531 16.175781 -16.269531 16.175781 -16.613281 L 16.175781 -17.292969 C 16.175781 -17.636719 15.929688 -17.882812 15.585938 -17.882812 L 14.902344 -17.882812 C 14.5625 -17.882812 14.3125 -18.132812 14.3125 -18.472656 L 14.3125 -19.15625 C 14.3125 -19.53125 14.097656 -19.746094 13.722656 -19.746094 L 13.039062 -19.746094 C 12.667969 -19.746094 12.449219 -19.964844 12.449219 -20.335938 L 12.449219 -21.019531 C 12.449219 -21.394531 12.234375 -21.609375 11.859375 -21.609375 L 11.179688 -21.609375 C 10.804688 -21.609375 10.585938 -21.828125 10.585938 -22.199219 L 10.585938 -22.882812 C 10.585938 -23.257812 10.371094 -23.472656 9.996094 -23.472656 L 9.316406 -23.472656 C 8.972656 -23.472656 8.726562 -23.722656 8.726562 -24.0625 L 8.726562 -24.746094 C 8.726562 -25.085938 8.476562 -25.335938 8.136719 -25.335938 L 7.453125 -25.335938 C 7.109375 -25.335938 6.863281 -25.585938 6.863281 -25.925781 L 6.863281 -26.609375 C 6.863281 -26.949219 6.613281 -27.199219 6.273438 -27.199219 L 5.589844 -27.199219 C 5.246094 -27.199219 5 -27.449219 5 -27.789062 L 5 -28.472656 C 5 -28.8125 4.75 -29.0625 4.410156 -29.0625 L 2.761719 -29.0625 C 2.390625 -29.0625 2.171875 -28.84375 2.171875 -28.472656 Z M 2.171875 -0.589844 "/></g></g></g><g fill="#ffffff" fill-opacity="1"><g transform="translate(272.774569, 86.584308)"><g><path d="M 2.171875 -0.589844 C 2.171875 -0.25 2.421875 0 2.761719 0 L 18.351562 0 C 18.722656 0 18.941406 -0.21875 18.941406 -0.589844 L 18.941406 -1.273438 C 18.941406 -1.644531 19.15625 -1.863281 19.53125 -1.863281 L 20.214844 -1.863281 C 20.585938 -1.863281 20.804688 -2.082031 20.804688 -2.453125 L 20.804688 -3.136719 C 20.804688 -3.507812 21.019531 -3.726562 21.394531 -3.726562 L 22.074219 -3.726562 C 22.449219 -3.726562 22.667969 -3.941406 22.667969 -4.316406 L 22.667969 -24.746094 C 22.667969 -25.117188 22.449219 -25.335938 22.074219 -25.335938 L 21.394531 -25.335938 C 21.019531 -25.335938 20.804688 -25.554688 20.804688 -25.925781 L 20.804688 -26.609375 C 20.804688 -26.980469 20.585938 -27.199219 20.214844 -27.199219 L 19.53125 -27.199219 C 19.15625 -27.199219 18.941406 -27.417969 18.941406 -27.789062 L 18.941406 -28.472656 C 18.941406 -28.84375 18.722656 -29.0625 18.351562 -29.0625 L 2.761719 -29.0625 C 2.421875 -29.0625 2.171875 -28.8125 2.171875 -28.472656 Z M 10.558594 -26.609375 C 10.558594 -26.980469 10.773438 -27.199219 11.148438 -27.199219 L 11.828125 -27.199219 C 12.203125 -27.199219 12.417969 -26.980469 12.417969 -26.609375 L 12.417969 -25.925781 C 12.417969 -25.554688 12.636719 -25.335938 13.007812 -25.335938 L 13.691406 -25.335938 C 14.066406 -25.335938 14.28125 -25.117188 14.28125 -24.746094 L 14.28125 -4.316406 C 14.28125 -3.941406 14.066406 -3.726562 13.691406 -3.726562 L 13.007812 -3.726562 C 12.636719 -3.726562 12.417969 -3.507812 12.417969 -3.136719 L 12.417969 -2.453125 C 12.417969 -2.082031 12.203125 -1.863281 11.828125 -1.863281 L 11.148438 -1.863281 C 10.773438 -1.863281 10.558594 -2.082031 10.558594 -2.453125 Z M 10.558594 -26.609375 "/></g></g></g><g fill="#ffffff" fill-opacity="1"><g transform="translate(303.078385, 86.584308)"><g><path d="M 2.171875 -0.589844 C 2.171875 -0.21875 2.390625 0 2.761719 0 L 20.214844 0 C 20.585938 0 20.804688 -0.21875 20.804688 -0.589844 L 20.804688 -7.792969 C 20.804688 -8.164062 20.585938 -8.382812 20.214844 -8.382812 L 14.871094 -8.382812 C 14.5 -8.382812 14.28125 -8.164062 14.28125 -7.792969 L 14.28125 -7.109375 C 14.28125 -6.738281 14.066406 -6.519531 13.691406 -6.519531 L 13.007812 -6.519531 C 12.636719 -6.519531 12.417969 -6.304688 12.417969 -5.929688 L 12.417969 -2.453125 C 12.417969 -2.082031 12.203125 -1.863281 11.828125 -1.863281 L 11.148438 -1.863281 C 10.773438 -1.863281 10.558594 -2.082031 10.558594 -2.453125 L 10.558594 -12.078125 C 10.558594 -12.449219 10.773438 -12.667969 11.148438 -12.667969 L 17.171875 -12.667969 C 17.542969 -12.667969 17.761719 -12.886719 17.761719 -13.257812 L 17.761719 -15.804688 C 17.761719 -16.175781 17.542969 -16.394531 17.171875 -16.394531 L 11.148438 -16.394531 C 10.773438 -16.394531 10.558594 -16.613281 10.558594 -16.984375 L 10.558594 -26.609375 C 10.558594 -26.980469 10.773438 -27.199219 11.148438 -27.199219 L 11.828125 -27.199219 C 12.203125 -27.199219 12.417969 -26.980469 12.417969 -26.609375 L 12.417969 -23.132812 C 12.417969 -22.757812 12.636719 -22.542969 13.007812 -22.542969 L 13.691406 -22.542969 C 14.066406 -22.542969 14.28125 -22.324219 14.28125 -21.953125 L 14.28125 -21.269531 C 14.28125 -20.894531 14.5 -20.679688 14.871094 -20.679688 L 20.214844 -20.679688 C 20.585938 -20.679688 20.804688 -20.894531 20.804688 -21.269531 L 20.804688 -28.472656 C 20.804688 -28.84375 20.585938 -29.0625 20.214844 -29.0625 L 2.761719 -29.0625 C 2.390625 -29.0625 2.171875 -28.84375 2.171875 -28.472656 Z M 2.171875 -0.589844 "/></g></g></g><g fill="#ffffff" fill-opacity="1"><g transform="translate(330.898446, 86.584308)"><g><path d="M 4.035156 -0.589844 C 4.035156 -0.25 4.285156 0 4.625 0 L 14.871094 0 C 15.246094 0 15.460938 -0.21875 15.460938 -0.589844 L 15.460938 -1.273438 C 15.460938 -1.644531 15.679688 -1.863281 16.050781 -1.863281 L 16.363281 -1.863281 C 16.703125 -1.863281 16.953125 -2.113281 16.953125 -2.453125 L 16.953125 -3.136719 C 16.953125 -3.476562 17.203125 -3.726562 17.542969 -3.726562 L 18.226562 -3.726562 C 18.566406 -3.726562 18.816406 -3.972656 18.816406 -4.316406 L 18.816406 -5 C 18.816406 -5.339844 19.0625 -5.589844 19.40625 -5.589844 L 20.089844 -5.589844 C 20.429688 -5.589844 20.679688 -5.835938 20.679688 -6.179688 L 20.679688 -6.863281 C 20.679688 -7.203125 20.925781 -7.453125 21.269531 -7.453125 L 22.292969 -7.453125 C 22.636719 -7.453125 22.882812 -7.699219 22.882812 -8.042969 L 22.882812 -28.472656 C 22.882812 -28.8125 22.636719 -29.0625 22.292969 -29.0625 L 15.089844 -29.0625 C 14.75 -29.0625 14.5 -28.8125 14.5 -28.472656 L 14.5 -4.316406 C 14.5 -3.941406 14.28125 -3.726562 13.910156 -3.726562 L 13.226562 -3.726562 C 12.855469 -3.726562 12.636719 -3.507812 12.636719 -3.136719 L 12.636719 -2.453125 C 12.636719 -2.082031 12.417969 -1.863281 12.046875 -1.863281 L 11.148438 -1.863281 C 10.773438 -1.863281 10.558594 -2.082031 10.558594 -2.453125 L 10.558594 -28.472656 C 10.558594 -28.8125 10.308594 -29.0625 9.96875 -29.0625 L 2.761719 -29.0625 C 2.421875 -29.0625 2.171875 -28.8125 2.171875 -28.472656 L 2.171875 -2.453125 C 2.171875 -2.113281 2.421875 -1.863281 2.761719 -1.863281 L 3.445312 -1.863281 C 3.789062 -1.863281 4.035156 -1.613281 4.035156 -1.273438 Z M 4.035156 -0.589844 "/></g></g></g><g fill="#ffffff" fill-opacity="1"><g transform="translate(127.11247, 107.504329)"><g><path d="M 1.652344 -0.242188 C 1.652344 -0.0898438 1.742188 0 1.894531 0 L 5.699219 0 C 5.855469 0 5.941406 -0.0898438 5.941406 -0.242188 L 5.941406 -0.523438 C 5.941406 -0.675781 6.03125 -0.761719 6.183594 -0.761719 L 6.464844 -0.761719 C 6.617188 -0.761719 6.707031 -0.851562 6.707031 -1.003906 L 6.707031 -1.285156 C 6.707031 -1.4375 6.796875 -1.527344 6.949219 -1.527344 L 7.226562 -1.527344 C 7.378906 -1.527344 7.46875 -1.4375 7.46875 -1.285156 L 7.46875 -1.003906 C 7.46875 -0.851562 7.558594 -0.761719 7.710938 -0.761719 L 7.992188 -0.761719 C 8.144531 -0.761719 8.234375 -0.675781 8.234375 -0.523438 L 8.234375 -0.242188 C 8.234375 -0.0898438 8.320312 0 8.476562 0 L 10.90625 0 C 11.058594 0 11.148438 -0.0898438 11.148438 -0.242188 L 11.148438 -0.523438 C 11.148438 -0.675781 11.234375 -0.761719 11.390625 -0.761719 L 11.515625 -0.761719 C 11.667969 -0.761719 11.757812 -0.851562 11.757812 -1.003906 L 11.757812 -1.285156 C 11.757812 -1.4375 11.847656 -1.527344 12 -1.527344 L 12.28125 -1.527344 C 12.433594 -1.527344 12.523438 -1.617188 12.523438 -1.769531 L 12.523438 -2.046875 C 12.523438 -2.203125 12.609375 -2.289062 12.761719 -2.289062 L 13.425781 -2.289062 C 13.578125 -2.289062 13.667969 -2.378906 13.667969 -2.53125 L 13.667969 -2.8125 C 13.667969 -2.964844 13.757812 -3.054688 13.910156 -3.054688 L 14.1875 -3.054688 C 14.339844 -3.054688 14.429688 -3.144531 14.429688 -3.296875 L 14.429688 -11.667969 C 14.429688 -11.820312 14.339844 -11.910156 14.1875 -11.910156 L 11.234375 -11.910156 C 11.082031 -11.910156 10.996094 -11.820312 10.996094 -11.667969 L 10.996094 -1.769531 C 10.996094 -1.617188 10.90625 -1.527344 10.753906 -1.527344 L 10.472656 -1.527344 C 10.320312 -1.527344 10.230469 -1.4375 10.230469 -1.285156 L 10.230469 -1.003906 C 10.230469 -0.851562 10.140625 -0.761719 9.988281 -0.761719 L 9.621094 -0.761719 C 9.46875 -0.761719 9.378906 -0.851562 9.378906 -1.003906 L 9.378906 -11.667969 C 9.378906 -11.820312 9.289062 -11.910156 9.136719 -11.910156 L 6.183594 -11.910156 C 6.03125 -11.910156 5.941406 -11.820312 5.941406 -11.667969 L 5.941406 -1.769531 C 5.941406 -1.617188 5.855469 -1.527344 5.699219 -1.527344 L 5.421875 -1.527344 C 5.269531 -1.527344 5.179688 -1.4375 5.179688 -1.285156 L 5.179688 -1.003906 C 5.179688 -0.851562 5.089844 -0.761719 4.9375 -0.761719 L 4.566406 -0.761719 C 4.414062 -0.761719 4.328125 -0.851562 4.328125 -1.003906 L 4.328125 -11.667969 C 4.328125 -11.820312 4.238281 -11.910156 4.085938 -11.910156 L 1.132812 -11.910156 C 0.980469 -11.910156 0.890625 -11.820312 0.890625 -11.667969 L 0.890625 -1.003906 C 0.890625 -0.851562 0.980469 -0.761719 1.132812 -0.761719 L 1.414062 -0.761719 C 1.566406 -0.761719 1.652344 -0.675781 1.652344 -0.523438 Z M 1.652344 -0.242188 "/></g></g></g><g fill="#ffffff" fill-opacity="1"><g transform="translate(152.487892, 107.504329)"><g><path d="M 0.890625 -0.242188 C 0.890625 -0.0898438 0.980469 0 1.132812 0 L 8.285156 0 C 8.4375 0 8.527344 -0.0898438 8.527344 -0.242188 L 8.527344 -3.195312 C 8.527344 -3.347656 8.4375 -3.4375 8.285156 -3.4375 L 6.09375 -3.4375 C 5.941406 -3.4375 5.855469 -3.347656 5.855469 -3.195312 L 5.855469 -2.914062 C 5.855469 -2.761719 5.765625 -2.671875 5.613281 -2.671875 L 5.332031 -2.671875 C 5.179688 -2.671875 5.089844 -2.582031 5.089844 -2.429688 L 5.089844 -1.003906 C 5.089844 -0.851562 5 -0.761719 4.847656 -0.761719 L 4.566406 -0.761719 C 4.414062 -0.761719 4.328125 -0.851562 4.328125 -1.003906 L 4.328125 -4.949219 C 4.328125 -5.101562 4.414062 -5.191406 4.566406 -5.191406 L 7.035156 -5.191406 C 7.191406 -5.191406 7.277344 -5.28125 7.277344 -5.433594 L 7.277344 -6.476562 C 7.277344 -6.628906 7.191406 -6.71875 7.035156 -6.71875 L 4.566406 -6.71875 C 4.414062 -6.71875 4.328125 -6.808594 4.328125 -6.960938 L 4.328125 -10.90625 C 4.328125 -11.058594 4.414062 -11.148438 4.566406 -11.148438 L 4.847656 -11.148438 C 5 -11.148438 5.089844 -11.058594 5.089844 -10.90625 L 5.089844 -9.480469 C 5.089844 -9.328125 5.179688 -9.238281 5.332031 -9.238281 L 5.613281 -9.238281 C 5.765625 -9.238281 5.855469 -9.148438 5.855469 -8.996094 L 5.855469 -8.714844 C 5.855469 -8.5625 5.941406 -8.476562 6.09375 -8.476562 L 8.285156 -8.476562 C 8.4375 -8.476562 8.527344 -8.5625 8.527344 -8.714844 L 8.527344 -11.667969 C 8.527344 -11.820312 8.4375 -11.910156 8.285156 -11.910156 L 1.132812 -11.910156 C 0.980469 -11.910156 0.890625 -11.820312 0.890625 -11.667969 Z M 0.890625 -0.242188 "/></g></g></g><g fill="#ffffff" fill-opacity="1"><g transform="translate(171.831608, 107.504329)"><g><path d="M 0.890625 -0.242188 C 0.890625 -0.101562 0.992188 0 1.132812 0 L 7.902344 0 C 8.042969 0 8.144531 -0.101562 8.144531 -0.242188 L 8.144531 -0.523438 C 8.144531 -0.660156 8.246094 -0.761719 8.386719 -0.761719 L 8.664062 -0.761719 C 8.804688 -0.761719 8.90625 -0.867188 8.90625 -1.003906 L 8.90625 -1.285156 C 8.90625 -1.425781 9.007812 -1.527344 9.148438 -1.527344 L 9.429688 -1.527344 C 9.570312 -1.527344 9.671875 -1.628906 9.671875 -1.769531 L 9.671875 -5.738281 C 9.671875 -5.878906 9.570312 -5.980469 9.429688 -5.980469 L 9.148438 -5.980469 C 9.007812 -5.980469 8.90625 -6.082031 8.90625 -6.222656 L 8.90625 -6.503906 C 8.90625 -6.640625 8.804688 -6.746094 8.664062 -6.746094 L 7.648438 -6.746094 C 7.507812 -6.746094 7.40625 -6.847656 7.40625 -6.984375 L 7.40625 -7.265625 C 7.40625 -7.40625 7.507812 -7.507812 7.648438 -7.507812 L 8.285156 -7.507812 C 8.4375 -7.507812 8.527344 -7.597656 8.527344 -7.75 L 8.527344 -8.03125 C 8.527344 -8.167969 8.628906 -8.269531 8.769531 -8.269531 L 9.046875 -8.269531 C 9.199219 -8.269531 9.289062 -8.359375 9.289062 -8.511719 L 9.289062 -10.90625 C 9.289062 -11.046875 9.1875 -11.148438 9.046875 -11.148438 L 8.78125 -11.148438 C 8.640625 -11.148438 8.539062 -11.25 8.539062 -11.390625 L 8.527344 -11.667969 C 8.527344 -11.808594 8.425781 -11.910156 8.285156 -11.910156 L 1.132812 -11.910156 C 0.992188 -11.910156 0.890625 -11.808594 0.890625 -11.667969 Z M 4.328125 -10.90625 C 4.328125 -11.046875 4.429688 -11.148438 4.566406 -11.148438 L 4.847656 -11.148438 C 4.988281 -11.148438 5.089844 -11.046875 5.089844 -10.90625 L 5.089844 -10.625 C 5.089844 -10.484375 5.191406 -10.382812 5.332031 -10.382812 L 5.613281 -10.382812 C 5.75 -10.382812 5.855469 -10.28125 5.855469 -10.140625 L 5.855469 -8.5625 C 5.855469 -8.425781 5.75 -8.320312 5.613281 -8.320312 L 5.332031 -8.320312 C 5.191406 -8.320312 5.089844 -8.21875 5.089844 -8.082031 L 5.089844 -7.800781 C 5.089844 -7.660156 4.988281 -7.558594 4.847656 -7.558594 L 4.566406 -7.558594 C 4.429688 -7.558594 4.328125 -7.660156 4.328125 -7.800781 Z M 4.328125 -6.464844 C 4.328125 -6.605469 4.429688 -6.707031 4.566406 -6.707031 L 4.847656 -6.707031 C 4.988281 -6.707031 5.089844 -6.605469 5.089844 -6.464844 L 5.089844 -6.183594 C 5.089844 -6.042969 5.191406 -5.941406 5.332031 -5.941406 L 5.613281 -5.941406 C 5.75 -5.941406 5.855469 -5.839844 5.855469 -5.699219 L 5.855469 -1.78125 C 5.855469 -1.640625 5.75 -1.539062 5.613281 -1.539062 L 5.332031 -1.539062 C 5.191406 -1.539062 5.089844 -1.4375 5.089844 -1.296875 L 5.089844 -1.019531 C 5.089844 -0.878906 4.988281 -0.777344 4.847656 -0.777344 L 4.566406 -0.777344 C 4.429688 -0.777344 4.328125 -0.878906 4.328125 -1.019531 Z M 4.328125 -6.464844 "/></g></g></g><g fill="#ffffff" fill-opacity="1"><g transform="translate(192.575092, 107.504329)"><g/></g></g><g fill="#ffffff" fill-opacity="1"><g transform="translate(205.938001, 107.504329)"><g><path d="M 0.890625 -0.242188 C 0.890625 -0.101562 0.992188 0 1.132812 0 L 7.519531 0 C 7.671875 0 7.761719 -0.0898438 7.761719 -0.242188 L 7.761719 -0.523438 C 7.761719 -0.675781 7.851562 -0.761719 8.003906 -0.761719 L 8.285156 -0.761719 C 8.4375 -0.761719 8.527344 -0.851562 8.527344 -1.003906 L 8.527344 -1.285156 C 8.527344 -1.4375 8.613281 -1.527344 8.769531 -1.527344 L 9.046875 -1.527344 C 9.199219 -1.527344 9.289062 -1.617188 9.289062 -1.769531 L 9.289062 -10.140625 C 9.289062 -10.292969 9.199219 -10.382812 9.046875 -10.382812 L 8.769531 -10.382812 C 8.613281 -10.382812 8.527344 -10.472656 8.527344 -10.625 L 8.527344 -10.90625 C 8.527344 -11.058594 8.4375 -11.148438 8.285156 -11.148438 L 8.003906 -11.148438 C 7.851562 -11.148438 7.761719 -11.234375 7.761719 -11.390625 L 7.761719 -11.667969 C 7.761719 -11.820312 7.671875 -11.910156 7.519531 -11.910156 L 1.132812 -11.910156 C 0.992188 -11.910156 0.890625 -11.808594 0.890625 -11.667969 Z M 4.328125 -10.90625 C 4.328125 -11.058594 4.414062 -11.148438 4.566406 -11.148438 L 4.847656 -11.148438 C 5 -11.148438 5.089844 -11.058594 5.089844 -10.90625 L 5.089844 -10.625 C 5.089844 -10.472656 5.179688 -10.382812 5.332031 -10.382812 L 5.613281 -10.382812 C 5.765625 -10.382812 5.855469 -10.292969 5.855469 -10.140625 L 5.855469 -1.769531 C 5.855469 -1.617188 5.765625 -1.527344 5.613281 -1.527344 L 5.332031 -1.527344 C 5.179688 -1.527344 5.089844 -1.4375 5.089844 -1.285156 L 5.089844 -1.003906 C 5.089844 -0.851562 5 -0.761719 4.847656 -0.761719 L 4.566406 -0.761719 C 4.414062 -0.761719 4.328125 -0.851562 4.328125 -1.003906 Z M 4.328125 -10.90625 "/></g></g></g><g fill="#ffffff" fill-opacity="1"><g transform="translate(226.299727, 107.504329)"><g><path d="M 0.890625 -0.242188 C 0.890625 -0.0898438 0.980469 0 1.132812 0 L 8.285156 0 C 8.4375 0 8.527344 -0.0898438 8.527344 -0.242188 L 8.527344 -3.195312 C 8.527344 -3.347656 8.4375 -3.4375 8.285156 -3.4375 L 6.09375 -3.4375 C 5.941406 -3.4375 5.855469 -3.347656 5.855469 -3.195312 L 5.855469 -2.914062 C 5.855469 -2.761719 5.765625 -2.671875 5.613281 -2.671875 L 5.332031 -2.671875 C 5.179688 -2.671875 5.089844 -2.582031 5.089844 -2.429688 L 5.089844 -1.003906 C 5.089844 -0.851562 5 -0.761719 4.847656 -0.761719 L 4.566406 -0.761719 C 4.414062 -0.761719 4.328125 -0.851562 4.328125 -1.003906 L 4.328125 -4.949219 C 4.328125 -5.101562 4.414062 -5.191406 4.566406 -5.191406 L 7.035156 -5.191406 C 7.191406 -5.191406 7.277344 -5.28125 7.277344 -5.433594 L 7.277344 -6.476562 C 7.277344 -6.628906 7.191406 -6.71875 7.035156 -6.71875 L 4.566406 -6.71875 C 4.414062 -6.71875 4.328125 -6.808594 4.328125 -6.960938 L 4.328125 -10.90625 C 4.328125 -11.058594 4.414062 -11.148438 4.566406 -11.148438 L 4.847656 -11.148438 C 5 -11.148438 5.089844 -11.058594 5.089844 -10.90625 L 5.089844 -9.480469 C 5.089844 -9.328125 5.179688 -9.238281 5.332031 -9.238281 L 5.613281 -9.238281 C 5.765625 -9.238281 5.855469 -9.148438 5.855469 -8.996094 L 5.855469 -8.714844 C 5.855469 -8.5625 5.941406 -8.476562 6.09375 -8.476562 L 8.285156 -8.476562 C 8.4375 -8.476562 8.527344 -8.5625 8.527344 -8.714844 L 8.527344 -11.667969 C 8.527344 -11.820312 8.4375 -11.910156 8.285156 -11.910156 L 1.132812 -11.910156 C 0.980469 -11.910156 0.890625 -11.820312 0.890625 -11.667969 Z M 0.890625 -0.242188 "/></g></g></g><g fill="#ffffff" fill-opacity="1"><g transform="translate(245.643442, 107.504329)"><g><path d="M 1.652344 -0.242188 C 1.652344 -0.101562 1.757812 0 1.894531 0 L 6.09375 0 C 6.246094 0 6.335938 -0.0898438 6.335938 -0.242188 L 6.335938 -0.523438 C 6.335938 -0.675781 6.425781 -0.761719 6.578125 -0.761719 L 6.707031 -0.761719 C 6.847656 -0.761719 6.949219 -0.867188 6.949219 -1.003906 L 6.949219 -1.285156 C 6.949219 -1.425781 7.050781 -1.527344 7.191406 -1.527344 L 7.46875 -1.527344 C 7.609375 -1.527344 7.710938 -1.628906 7.710938 -1.769531 L 7.710938 -2.046875 C 7.710938 -2.1875 7.8125 -2.289062 7.953125 -2.289062 L 8.234375 -2.289062 C 8.375 -2.289062 8.476562 -2.390625 8.476562 -2.53125 L 8.476562 -2.8125 C 8.476562 -2.953125 8.578125 -3.054688 8.714844 -3.054688 L 9.136719 -3.054688 C 9.277344 -3.054688 9.378906 -3.15625 9.378906 -3.296875 L 9.378906 -11.667969 C 9.378906 -11.808594 9.277344 -11.910156 9.136719 -11.910156 L 6.183594 -11.910156 C 6.042969 -11.910156 5.941406 -11.808594 5.941406 -11.667969 L 5.941406 -1.769531 C 5.941406 -1.617188 5.855469 -1.527344 5.699219 -1.527344 L 5.421875 -1.527344 C 5.269531 -1.527344 5.179688 -1.4375 5.179688 -1.285156 L 5.179688 -1.003906 C 5.179688 -0.851562 5.089844 -0.761719 4.9375 -0.761719 L 4.566406 -0.761719 C 4.414062 -0.761719 4.328125 -0.851562 4.328125 -1.003906 L 4.328125 -11.667969 C 4.328125 -11.808594 4.226562 -11.910156 4.085938 -11.910156 L 1.132812 -11.910156 C 0.992188 -11.910156 0.890625 -11.808594 0.890625 -11.667969 L 0.890625 -1.003906 C 0.890625 -0.867188 0.992188 -0.761719 1.132812 -0.761719 L 1.414062 -0.761719 C 1.550781 -0.761719 1.652344 -0.660156 1.652344 -0.523438 Z M 1.652344 -0.242188 "/></g></g></g><g clip-path="url(#c79ba84c68)"><path fill="#ffffff" d="M 55.832031 34.113281 L 74.78125 34.113281 C 93.515625 34.113281 108.855469 49.53125 108.855469 68.359375 C 108.855469 87.199219 93.515625 102.617188 74.78125 102.617188 L 55.832031 102.617188 L 55.832031 94.871094 L 74.78125 94.871094 C 89.289062 94.871094 101.160156 82.949219 101.160156 68.359375 C 101.160156 53.78125 89.289062 41.859375 74.78125 41.859375 L 73.671875 41.859375 C 72.34375 39.445312 69.792969 37.816406 66.859375 37.816406 C 63.925781 37.816406 61.375 39.445312 60.046875 41.859375 C 59.417969 42.976562 59.070312 44.277344 59.070312 45.648438 C 59.070312 47.09375 59.457031 48.425781 60.121094 49.59375 C 61.472656 51.921875 63.984375 53.476562 66.859375 53.476562 C 69.734375 53.476562 72.246094 51.921875 73.597656 49.59375 L 74.78125 49.59375 C 85.050781 49.59375 93.457031 58.042969 93.457031 68.359375 C 93.457031 78.691406 85.050781 87.140625 74.78125 87.140625 L 40.445312 87.140625 L 40.445312 51.960938 C 42.800781 50.613281 44.382812 48.0625 44.382812 45.148438 C 44.382812 40.828125 40.890625 37.320312 36.589844 37.320312 C 32.289062 37.320312 28.800781 40.828125 28.800781 45.148438 C 28.800781 48.0625 30.394531 50.613281 32.738281 51.960938 L 32.738281 94.871094 L 48.136719 94.871094 L 48.136719 110.347656 L 74.78125 110.347656 C 97.757812 110.347656 116.550781 91.460938 116.550781 68.359375 C 116.550781 45.269531 97.757812 26.382812 74.78125 26.382812 L 48.136719 26.382812 L 48.136719 69.257812 C 45.78125 70.605469 44.199219 73.140625 44.199219 76.066406 C 44.199219 80.390625 47.679688 83.898438 51.992188 83.898438 C 56.289062 83.898438 59.78125 80.390625 59.78125 76.066406 C 59.78125 73.140625 58.1875 70.605469 55.832031 69.257812 Z M 66.859375 42.5625 C 68.550781 42.5625 69.925781 43.949219 69.925781 45.648438 C 69.925781 47.359375 68.550781 48.742188 66.859375 48.742188 C 65.167969 48.742188 63.792969 47.359375 63.792969 45.648438 C 63.792969 43.949219 65.167969 42.5625 66.859375 42.5625 Z M 39.660156 45.148438 C 39.660156 46.847656 38.28125 48.234375 36.589844 48.234375 C 34.898438 48.234375 33.523438 46.847656 33.523438 45.148438 C 33.523438 43.449219 34.898438 42.066406 36.589844 42.066406 C 38.28125 42.066406 39.660156 43.449219 39.660156 45.148438 Z M 51.992188 72.984375 C 53.679688 72.984375 55.058594 74.355469 55.058594 76.066406 C 55.058594 77.765625 53.679688 79.152344 51.992188 79.152344 C 50.289062 79.152344 48.910156 77.765625 48.910156 76.066406 C 48.910156 74.355469 50.289062 72.984375 51.992188 72.984375 Z M 51.992188 72.984375 " fill-opacity="1" fill-rule="evenodd"/></g></svg>